<?xml version="1.0" encoding="utf-8"?>
<svg version="1.1" id="Layer_1" xmlns="http://www.w3.org/2000/svg" x="0px" y="0px"
  viewBox="0 0 120 60" style="enable-background:new 0 0 120 60;" xml:space="preserve">
<style type="text/css">
  .st0{fill:#010101;}
  .st1{fill:#137172;}
  .st2{fill:none;stroke:#DAE8E7;stroke-width:2;stroke-linecap:round;}
</style>
<g>
  <path class="st0" d="M52.13,44.23v-2.03L65.21,25H52.54v-2.28h15.91v2.08L55.36,41.94h13.5v2.28H52.13z M80.69,44.23
    c-4.1,0-6.15-2.05-6.15-6.15s2.05-6.15,6.15-6.15h8.18V28.4c0-2.27-1.14-3.41-3.41-3.41h-8.89v-1.2l1.41-1.08h7.39
    c4.04,0,6.06,2.03,6.06,6.1v15.41H80.69z M77.16,38.58c0,2.24,1.12,3.36,3.36,3.36h8.35v-7.72h-8.35c-2.24,0-3.36,1.14-3.36,3.41
    V38.58z M99.38,44.23V22.72h11.5c4.04,0,6.06,2.03,6.06,6.1v15.41h-2.57V28.4c0-2.27-1.14-3.41-3.41-3.41H102v19.23H99.38z"/>
  <path class="st1" d="M15.66,44.23c-4.1,0-6.15-2.05-6.15-6.15s2.05-6.15,6.15-6.15h8.18V28.4c0-2.27-1.14-3.41-3.41-3.41h-8.89
    v-1.2l1.41-1.08h7.39c4.04,0,6.06,2.03,6.06,6.1v15.41H15.66z M12.13,38.58c0,2.24,1.12,3.36,3.36,3.36h8.35v-7.72H15.5
    c-2.24,0-3.36,1.14-3.36,3.41V38.58z M34.23,18.73v-3.32h2.87v3.32H34.23z M34.36,44.23V22.72h2.62v21.51H34.36z"/>
  <path class="st2" d="M3.05,43.65V10c0-0.21,0.17-0.38,0.38-0.38H44.2c0.21,0,0.38,0.17,0.38,0.38V50c0,0.21-0.17,0.38-0.38,0.38
    H9.88"/>
</g>
</svg>

